<?xml version="1.0" encoding="utf-8"?>
<!-- Generator: Adobe Illustrator 19.1.0, SVG Export Plug-In . SVG Version: 6.00 Build 0)  -->
<svg version="1.1" id="Layer_1" xmlns="http://www.w3.org/2000/svg" xmlns:xlink="http://www.w3.org/1999/xlink" x="0px" y="0px"
	 viewBox="-621 686.7 1024.4 894" style="enable-background:new -621 686.7 1024.4 894;" xml:space="preserve">
<style type="text/css">
	.st0{fill:none;stroke:#FF0000;stroke-width:0.4252;stroke-linecap:round;}
	.st1{fill:none;stroke:#0000FF;stroke-width:0.4252;stroke-linecap:round;}
	.st2{font-family:'MyriadPro-Regular';}
	.st3{font-size:10.3901px;}
	.st4{font-size:7.0937px;}
</style>
<g id="svgGroup">
	<path vector-effect="non-scaling-stroke" class="st0" d="M-621,817.1h28.6v8h8v-8h28.6v-28.6h8v-8h-8v-28.6h28.6v8h8v-8h28.6v-28.6
		h8v-8h-8v-28.6h182.2v8h8v-8h182.2v28.6h-8v8h8v28.6h5.4v8h8v-8h5.4v-28.6h8v-8h-8v-28.6H82.8v8h8v-8H273v28.6h-8v8h8v28.6h28.6v8
		h8v-8h28.6v28.6h-8v8h8v28.6h28.6v8h8v-8h28.6v182.2h-8v8h8v182.2h-28.6v-8h-8v8h-28.6v28.6h-8v8h8v28.6h-28.6v-8h-8v8H273v28.6h-8
		v8h8v28.6h-28.6v-8h-8v8h-28.6v28.6h-8v8h8v28.6h-28.6v-8h-8v8h-28.6v28.6h-8v8h8v28.6h-28.6v-8h-8v8H77.5v28.6h-8v8h8v28.6H48.9
		v-8h-8v8H12.3v28.6h-8v8h8v28.6h-117v-8h-8v8h-117v-28.6h8v-8h-8v-28.6h-28.6v-8h-8v8H-295v-28.6h8v-8h-8v-28.6h-28.6v-8h-8v8
		h-28.6v-28.6h8v-8h-8v-28.6h-28.6v-8h-8v8h-28.6v-28.6h8v-8h-8v-28.6H-454v-8h-8v8h-28.6v-28.6h8v-8h-8v-28.6h-28.6v-8h-8v8h-28.6
		v-28.6h8v-8h-8v-28.6h-28.6v-8h-8v8H-621v-182.2h8v-8h-8V817.1z M257.8,1145.7h-8v-8h8V1145.7z M323,1007.3h-8v-8h8V1007.3z
		 M257.8,868.9h-8v-8h8V868.9z M192.6,1210.9h-8v-8h8V1210.9z M127.4,1276.1h-8v-8h8V1276.1z M25.6,1369.9v-8h8v8H25.6z
		 M-512,1109.1v-8h8v8H-512z M-446.8,1174.3v-8h8v8H-446.8z M-504,897.5v8h-8v-8H-504z M62.2,1341.3h-8v-8h8V1341.3z M-3,1406.5h-8
		v-8h8V1406.5z M-39.6,1435.1v-8h8v8H-39.6z M-68.2,1471.7h-8v-8h8V1471.7z M-410.2,795.7h8v8h-8V795.7z M-149.4,1463.7h8v8h-8
		V1463.7z M-186,1435.1v-8h8v8H-186z M-214.6,1398.5h8v8h-8V1398.5z M-251.2,1369.9v-8h8v8H-251.2z M-279.8,1333.3h8v8h-8V1333.3z
		 M-410.2,1202.9h8v8h-8V1202.9z M-112.8,1500.3v-8h8v8H-112.8z M-438.8,832.3v8h-8v-8H-438.8z M-104.8,832.3v8h-8v-8H-104.8z
		 M229.2,832.3v8h-8v-8H229.2z M-300.4,767.1v8h-8v-8H-300.4z M294.4,897.5v8h-8v-8H294.4z M-198.6,803.7h-8v-8h8V803.7z
		 M286.4,1109.1v-8h8v8H286.4z M-19,795.7h8v8h-8V795.7z M221.2,1174.3v-8h8v8H221.2z M-475.4,860.9h8v8h-8V860.9z M156,1239.5v-8h8
		v8H156z M-316.4,1304.7v-8h8v8H-316.4z M-345,1268.1h8v8h-8V1268.1z M-381.6,1239.5v-8h8v8H-381.6z M90.8,767.1v8h-8v-8H90.8z
		 M90.8,1304.7v-8h8v8H90.8z M-475.4,1137.7h8v8h-8V1137.7z M192.6,803.7h-8v-8h8V803.7z M-540.6,999.3h8v8h-8V999.3z"/>
	<path id="blue" vector-effect="non-scaling-stroke" class="st1" d="M-613,825.1h65.2v-65.2h65.2v-65.2h356.5v65.2h34.7v-65.2h356.5
		v65.2h65.2v65.2h65.2v356.5h-65.2v65.2h-65.2v65.2h-65.2v65.2h-65.2v65.2H69.5v65.2H4.3v65.2h-226.1v-65.2H-287v-65.2h-65.2v-65.2
		h-65.2v-65.2h-65.2v-65.2h-65.2v-65.2H-613V825.1z M-540.6,897.5h65.2v-65.2h65.2v-65.2h211.6v65.2H-19v-65.2h211.6v65.2h65.2v65.2
		H323v211.6h-65.2v65.2h-65.2v65.2h-65.2v65.2H62.2v65.2H-3v65.2h-65.2v65.2h-81.2v-65.2h-65.2v-65.2h-65.2v-65.2H-345v-65.2h-65.2
		v-65.2h-65.2v-65.2h-65.2V897.5z M-532.6,905.5h65.2v-65.2h65.2v-65.2h195.6v65.2H-11v-65.2h195.6v65.2h65.2v65.2H315v195.6h-65.2
		v65.2h-65.2v65.2h-65.2v65.2H54.2v65.2H-11v65.2h-65.2v65.2h-65.2v-65.2h-65.2v-65.2h-65.2v-65.2H-337v-65.2h-65.2v-65.2h-65.2
		v-65.2h-65.2V905.5z"/>
</g>
<g>
	
		<rect x="-647.7" y="796.8" transform="matrix(0.7071 -0.7071 0.7071 0.7071 -715.4296 -122.325)" class="st1" width="284.6" height="11.3"/>
	<text transform="matrix(0.7071 -0.7071 0.7071 0.7071 -514.0936 815.8535)" class="st1 st2 st3">LED strip</text>
</g>
<g>
	
		<rect x="-637.4" y="789" transform="matrix(0.7071 -0.7071 0.7071 0.7071 -710.1563 -128.2424)" class="st1" width="255.1" height="8.2"/>
	<text transform="matrix(0.7071 -0.7071 0.7071 0.7071 -523.7394 810.6301)" class="st1 st2 st4">Mounting Acrylic</text>
</g>
<g>
	<rect x="-613" y="907.4" class="st1" width="11.3" height="191.7"/>
	<text transform="matrix(2.244832e-11 -1 1 2.244832e-11 -604.0159 1054.1321)" class="st1 st2 st3">LED strip</text>
</g>
<g>
	
		<rect x="-701.1" y="1328.3" transform="matrix(-0.7071 -0.7071 0.7071 -0.7071 -1582.808 2012.2972)" class="st1" width="653" height="11.3"/>
	<text transform="matrix(-0.7071 -0.7071 0.7071 -0.7071 -475.4973 1228.4103)" class="st1 st2 st3">LED strip</text>
</g>
<g>
	
		<rect x="-676.7" y="1343.1" transform="matrix(-0.7071 -0.7071 0.7071 -0.7071 -1593.1777 2034.4823)" class="st1" width="603" height="8.2"/>
	<text transform="matrix(-0.7071 -0.7071 0.7071 -0.7071 -480.7208 1238.0558)" class="st1 st2 st4">Mounting Acrylic</text>
</g>
<g>
	<rect x="-139.4" y="1561.4" class="st1" width="87.9" height="11.3"/>
	<text transform="matrix(1 0 0 1 -116.2476 1570.3781)" class="st1 st2 st3">LED strip</text>
</g>
<g>
	<rect x="-400.7" y="694.5" class="st1" width="191.7" height="11.3"/>
	<text transform="matrix(1 0 0 1 -355.795 703.4736)" class="st1 st2 st3">LED strip</text>
</g>
</svg>
