<svg width="388.334mm" height="126mm" viewBox="0 0 388.334 126"><g id="svgGroup" stroke-linecap="round" fill-rule="evenodd" font-size="9pt" stroke="red" stroke-width="1" fill="none"><path d="M 0 30 L 220.163 30 L 220.163 0 L 0 0 L 0 30 Z M 97.556 94 L 317.719 94 L 317.719 64 L 97.556 64 L 97.556 94 Z M 24 62 L 226.697 62 L 226.697 32 L 24 32 L 24 62 Z M 142 126 L 232 126 L 232 96 L 142 96 L 142 126 Z M 280.397 126 L 370.397 126 L 370.397 96 L 280.397 96 L 280.397 126 Z M 0 126 L 69 126 L 69 96 L 0 96 L 0 126 Z M 71 126 L 140 126 L 140 96 L 71 96 L 71 126 Z M 319.719 94 L 388.334 94 L 388.334 64 L 319.719 64 L 319.719 94 Z M 0 94 L 68.615 94 L 68.615 64 L 0 64 L 0 94 Z M 70.615 94 L 95.556 94 L 95.556 64 L 70.615 64 L 70.615 94 Z M 234 126 L 258.941 126 L 258.941 96 L 234 96 L 234 126 Z M 0 62 L 22 62 L 22 32 L 0 32 L 0 62 Z M 260.941 126 L 278.397 126 L 278.397 96 L 260.941 96 L 260.941 126 Z" vector-effect="non-scaling-stroke"/><path d="M 0 124 69 124 M 0 112 69 112 M 0 108 69 108 M 71 124 140 124 M 71 112 140 112 M 71 108 140 108 M 142 124 232 124 M 142 112 232 112 M 142 108 232 108 M 234 124 258.941 124 M 234 112 258.941 112 M 234 108 258.941 108 M 260.941 124 278.397 124 M 260.941 112 278.397 112 M 260.941 108 278.397 108 M 280.397 124 370.397 124 M 280.397 112 370.397 112 M 280.397 108 370.397 108 M 0 92 68.615 92 M 0 80 68.615 80 M 0 76 68.615 76 M 70.615 92 95.556 92 M 70.615 80 95.556 80 M 70.615 76 95.556 76 M 97.556 92 317.719 92 M 97.556 80 317.719 80 M 97.556 76 317.719 76 M 319.719 92 388.334 92 M 319.719 80 388.334 80 M 319.719 76 388.334 76 M 0 60 22 60 M 0 48 22 48 M 0 44 22 44 M 24 60 226.697 60 M 24 48 226.697 48 M 24 44 226.697 44 M 0 28 220.163 28 M 0 16 220.163 16 M 0 12 220.163 12" id="blue" stroke="blue" vector-effect="non-scaling-stroke"/></g></svg>