<?xml version="1.0" encoding="utf-8"?>
<!-- Generator: Adobe Illustrator 19.1.0, SVG Export Plug-In . SVG Version: 6.00 Build 0)  -->
<svg version="1.1" id="Layer_1" xmlns="http://www.w3.org/2000/svg" xmlns:xlink="http://www.w3.org/1999/xlink" x="0px" y="0px"
	 viewBox="-698 484 330 330" style="enable-background:new -698 484 330 330;" xml:space="preserve">
<style type="text/css">
	.st0{fill:none;stroke:#ED1F24;stroke-width:1.000000e-02;}
</style>
<path id="path40" class="st0" d="M-698,534.8h6.3v3.2h12.7v-3.2h6.3v-6.3h3.2v-12.7h-3.2v-6.3h6.3v3.2h12.7v-3.2h6.3V503h3.2v-12.7
	h-3.2V484h19v3.2h38.1V484h19v6.3h-3.2V503h3.2v6.3h19v3.2h38.1v-3.2h19V503h3.2v-12.7h-3.2V484h19v3.2h38.1V484h19v6.3h-3.2V503
	h3.2v6.3h6.3v3.2h12.7v-3.2h6.3v6.3h-3.2v12.7h3.2v6.3h6.3v3.2h12.7v-3.2h6.3v19h-3.2v38.1h3.2v19h-6.3v-3.2H-387v3.2h-6.3v6.3h-3.2
	V630h3.2v6.3h-6.3v-3.2h-12.7v3.2h-6.3v6.3h-3.2v12.7h3.2v6.3h-6.3v-3.2h-12.7v3.2h-6.3v6.3h-3.2v12.7h3.2v6.3h-6.3v-3.2h-12.7v3.2
	h-6.3v6.3h-3.2v12.7h3.2v6.3h-6.3v-3.2h-12.7v3.2h-6.3v6.3h-3.2v12.7h3.2v6.3h-6.3v-3.2H-514v3.2h-6.3v6.3h-3.2v12.7h3.2v6.3h-6.3
	V760h-12.7v3.2h-6.3v-6.3h3.2v-12.7h-3.2v-6.3h-6.3v-3.2h-12.7v3.2h-6.3v-6.3h3.2v-12.7h-3.2v-6.3h-6.3v-3.2h-12.7v3.2h-6.3v-6.3
	h3.2v-12.7h-3.2v-6.3h-6.3v-3.2h-12.7v3.2h-6.3v-6.3h3.2V668h-3.2v-6.3h-6.3v-3.2h-12.7v3.2h-6.3v-6.3h3.2v-12.7h-3.2v-6.3h-6.3
	v-3.2h-12.7v3.2h-6.3V630h3.2v-12.7h-3.2v-6.3h-6.3v-3.2h-12.7v3.2h-6.3v-19h3.2v-38.1h-3.2V534.8"/>
</svg>
