<?xml version="1.0" encoding="utf-8"?>
<!-- Generator: Adobe Illustrator 19.1.0, SVG Export Plug-In . SVG Version: 6.00 Build 0)  -->
<svg version="1.1" id="black_acrylic" xmlns="http://www.w3.org/2000/svg" xmlns:xlink="http://www.w3.org/1999/xlink" x="0px"
	 y="0px" viewBox="-269 485.7 1728 1296" style="enable-background:new -269 485.7 1728 1296;" xml:space="preserve">
<style type="text/css">
	.st0{fill:none;stroke:#FF0000;stroke-linecap:round;}
	.st1{fill:none;stroke:#0000FF;stroke-linecap:round;}
</style>
<g id="svgGroup">
	<path vector-effect="non-scaling-stroke" class="st0" d="M-207.3,1057.9h27.1v9h9v-9h27.1v-27.1h9v-9h-9v-27.1H43.3v9h9v-9h187.4
		v27.1h-9v9h9v27.1h27.1v9h9v-9h27.1v92.7h-9v9h9v92.7h-27v-9h-9v9h-27.1v27.1h-9v9h9v27.1h-27.1v-9h-9v9h-27.1v27.1h-9v9h9v27.1
		h-27.1v-9h-9v9h-27.1v27.1h-9v9h9v27.1H52.3v-9h-9v9h-61.1v-27.1h9v-9h-9v-27.1h-27.1v-9h-9v9H-81v-27.1h9v-9h-9v-27.1h-27.1v-9h-9
		v9h-27v-27.1h9v-9h-9v-27.1h-27.1v-9h-9v9h-27.1v-92.7h9v-9h-9L-207.3,1057.9L-207.3,1057.9z M-227.3,598.8h27.1v9h9v-9h27.1v-27.1
		h9v-9h-9v-27.1H23.3v9h9v-9h187.4v27.1h-9v9h9v27.1h27.1v9h9v-9h27.1v92.7h-9v9h9v92.7h-27v-9h-9v9h-27.1v27.1h-9v9h9v27.1h-27.1
		v-9h-9v9h-27.1v27.1h-9v9h9v27.1h-27.1v-9h-9v9H93.4v27.1h-9v9h9v27.1H32.3v-9h-9v9h-61.1v-27.1h9v-9h-9v-27.1h-27.1v-9h-9v9H-101
		v-27.1h9v-9h-9v-27.1h-27.1v-9h-9v9h-27v-27.1h9v-9h-9v-27.1h-27.1v-9h-9v9h-27.1v-92.7h9v-9h-9L-227.3,598.8L-227.3,598.8z
		 M-173.2,1091.9h63.2v-63.2H16.3v63.2h63.2v-63.2h126.3v63.2H269v126.3h-63.2v63.2h-63.2v63.2H79.4v63.2H16.2v-63.2H-47v-63.2
		h-63.1v-63.2h-63.2v-126.3H-173.2z"/>
</g>
<polygon class="st0" points="-168.2,1154.7 19.3,1154.7 19.3,1163.7 28.3,1163.7 28.3,1154.7 206.7,1154.7 206.7,1133.7 
	215.7,1133.7 215.7,1124.7 206.7,1124.7 206.7,1103.6 28.3,1103.6 28.3,1094.6 19.3,1094.6 19.3,1103.6 -168.2,1103.6 
	-168.2,1124.7 -159.1,1124.7 -159.1,1133.7 -168.2,1133.7 "/>
<polygon class="st0" points="-106.7,1216.9 -79.6,1216.9 -79.6,1225.9 -70.6,1225.9 -70.6,1216.9 -43.5,1216.9 -43.5,1195.9 
	-34.5,1195.9 -34.5,1186.9 -43.5,1186.9 -43.5,1165.9 -70.6,1165.9 -70.6,1156.9 -79.6,1156.9 -79.6,1165.9 -106.7,1165.9 
	-106.7,1186.9 -97.7,1186.9 -97.7,1195.9 -106.7,1195.9 "/>
<polygon class="st0" points="103,1091.1 139.1,1091.1 139.1,1100.2 148.2,1100.2 148.2,1091.1 166.2,1091.1 166.2,1070.1 
	175.2,1070.1 175.2,1061.1 166.2,1061.1 166.2,1040.1 148.2,1040.1 148.2,1031.1 139.1,1031.1 139.1,1040.1 103,1040.1 103,1061.1 
	112.1,1061.1 112.1,1070.1 103,1070.1 "/>
<polygon class="st0" points="43.3,1216.9 70.4,1216.9 70.4,1225.9 79.4,1225.9 79.4,1216.9 106.5,1216.9 106.5,1195.9 115.5,1195.9 
	115.5,1186.9 106.5,1186.9 106.5,1165.9 79.4,1165.9 79.4,1156.9 70.4,1156.9 70.4,1165.9 43.3,1165.9 43.3,1186.9 52.3,1186.9 
	52.3,1195.9 43.3,1195.9 "/>
<polygon class="st0" points="-31.9,1216.9 4.2,1216.9 4.2,1225.9 13.3,1225.9 13.3,1216.9 31.3,1216.9 31.3,1195.9 40.3,1195.9 
	40.3,1186.9 31.3,1186.9 31.3,1165.9 13.3,1165.9 13.3,1156.9 4.2,1156.9 4.2,1165.9 -31.9,1165.9 -31.9,1186.9 -22.8,1186.9 
	-22.8,1195.9 -31.9,1195.9 "/>
<polygon class="st0" points="-87.8,1092.1 -60.8,1092.1 -60.8,1101.2 -51.8,1101.2 -51.8,1092.1 -24.7,1092.1 -24.7,1071.1 
	-15.7,1071.1 -15.7,1062.1 -24.7,1062.1 -24.7,1041.1 -51.8,1041.1 -51.8,1032.1 -60.8,1032.1 -60.8,1041.1 -87.8,1041.1 
	-87.8,1062.1 -78.8,1062.1 -78.8,1071.1 -87.8,1071.1 "/>
<polygon class="st0" points="-106.7,1278.9 -14,1278.9 -14,1287.9 -5,1287.9 -5,1278.9 78.7,1278.9 78.7,1257.9 87.7,1257.9 
	87.7,1248.9 78.7,1248.9 78.7,1227.9 -5,1227.9 -5,1218.9 -14,1218.9 -14,1227.9 -106.7,1227.9 -106.7,1248.9 -97.7,1248.9 
	-97.7,1257.9 -106.7,1257.9 "/>
<polygon class="st0" points="194,1207.9 221,1207.9 221,1216.9 230.1,1216.9 230.1,1207.9 257.1,1207.9 257.1,1186.9 266.2,1186.9 
	266.2,1177.9 257.1,1177.9 257.1,1156.9 230.1,1156.9 230.1,1147.9 221,1147.9 221,1156.9 194,1156.9 194,1177.9 203,1177.9 
	203,1186.9 194,1186.9 "/>
<polygon class="st0" points="91.3,1278.9 127.4,1278.9 127.4,1287.9 136.4,1287.9 136.4,1278.9 154.5,1278.9 154.5,1257.9 
	163.5,1257.9 163.5,1248.9 154.5,1248.9 154.5,1227.9 136.4,1227.9 136.4,1218.9 127.4,1218.9 127.4,1227.9 91.3,1227.9 
	91.3,1248.9 100.3,1248.9 100.3,1257.9 91.3,1257.9 "/>
<polygon class="st0" points="119.1,1216.9 155.2,1216.9 155.2,1225.9 164.2,1225.9 164.2,1216.9 182.3,1216.9 182.3,1195.9 
	191.3,1195.9 191.3,1186.9 182.3,1186.9 182.3,1165.9 164.2,1165.9 164.2,1156.9 155.2,1156.9 155.2,1165.9 119.1,1165.9 
	119.1,1186.9 128.1,1186.9 128.1,1195.9 119.1,1195.9 "/>
<polygon class="st0" points="-196.9,1370.6 -160.8,1370.6 -160.8,1379.6 -151.8,1379.6 -151.8,1370.6 -133.7,1370.6 -133.7,1349.6 
	-124.7,1349.6 -124.7,1340.5 -133.7,1340.5 -133.7,1319.5 -151.8,1319.5 -151.8,1310.5 -160.8,1310.5 -160.8,1319.5 -196.9,1319.5 
	-196.9,1340.5 -187.9,1340.5 -187.9,1349.6 -196.9,1349.6 "/>
<polygon class="st0" points="-218.7,1046.3 -191.7,1046.3 -191.7,1055.3 -182.6,1055.3 -182.6,1046.3 -155.6,1046.3 -155.6,1025.3 
	-146.6,1025.3 -146.6,1016.3 -155.6,1016.3 -155.6,995.2 -182.6,995.2 -182.6,986.2 -191.7,986.2 -191.7,995.2 -218.7,995.2 
	-218.7,1016.3 -209.7,1016.3 -209.7,1025.3 -218.7,1025.3 "/>
<polygon class="st0" points="-113.3,982.6 -77.2,982.6 -77.2,991.6 -68.2,991.6 -68.2,982.6 -50.1,982.6 -50.1,961.6 -41.1,961.6 
	-41.1,952.6 -50.1,952.6 -50.1,931.6 -68.2,931.6 -68.2,922.6 -77.2,922.6 -77.2,931.6 -113.3,931.6 -113.3,952.6 -104.3,952.6 
	-104.3,961.6 -113.3,961.6 "/>
<polygon class="st0" points="-21.3,1341.1 39.8,1341.1 39.8,1350.1 48.8,1350.1 48.8,1341.1 100.9,1341.1 100.9,1320.1 
	109.9,1320.1 109.9,1311 100.9,1311 100.9,1290 48.8,1290 48.8,1281 39.8,1281 39.8,1290 -21.3,1290 -21.3,1311 -12.3,1311 
	-12.3,1320.1 -21.3,1320.1 "/>
<polygon class="st0" points="-191,920.3 -163.9,920.3 -163.9,929.3 -154.9,929.3 -154.9,920.3 -127.9,920.3 -127.9,899.3 
	-118.8,899.3 -118.8,890.3 -127.9,890.3 -127.9,869.3 -154.9,869.3 -154.9,860.2 -163.9,860.2 -163.9,869.3 -191,869.3 -191,890.3 
	-182,890.3 -182,899.3 -191,899.3 "/>
<polygon class="st0" points="-187.5,982.6 -151.4,982.6 -151.4,991.6 -142.4,991.6 -142.4,982.6 -124.3,982.6 -124.3,961.6 
	-115.3,961.6 -115.3,952.6 -124.3,952.6 -124.3,931.6 -142.4,931.6 -142.4,922.6 -151.4,922.6 -151.4,931.6 -187.5,931.6 
	-187.5,952.6 -178.5,952.6 -178.5,961.6 -187.5,961.6 "/>
<polygon class="st0" points="-215.7,1439.5 -123,1439.6 -123,1448.6 -114,1448.6 -114,1439.6 -30.3,1439.8 -30.3,1418.8 
	-21.3,1418.8 -21.3,1409.8 -30.3,1409.7 -30.2,1388.7 -113.9,1388.6 -113.9,1379.6 -122.9,1379.6 -122.9,1388.6 -215.6,1388.4 
	-215.6,1409.4 -206.6,1409.5 -206.6,1418.5 -215.7,1418.5 "/>
<polygon class="st0" points="174.2,980.6 210.3,980.6 210.3,989.6 219.3,989.6 219.3,980.6 237.4,980.6 237.4,959.6 246.4,959.6 
	246.4,950.6 237.4,950.6 237.4,929.6 219.3,929.6 219.3,920.6 210.3,920.6 210.3,929.6 174.2,929.6 174.2,950.6 183.2,950.6 
	183.2,959.6 174.2,959.6 "/>
<polygon class="st0" points="97.8,981.5 124.9,981.6 124.9,990.6 133.9,990.6 133.9,981.6 161,981.6 161,960.6 170,960.7 170,951.6 
	161,951.6 161.1,930.6 134,930.6 134,921.6 125,921.6 125,930.6 97.9,930.5 97.9,951.5 106.9,951.5 106.9,960.6 97.8,960.5 "/>
<polygon class="st0" points="116.1,1440.6 143.2,1440.6 143.2,1449.6 152.2,1449.6 152.2,1440.6 179.3,1440.6 179.3,1419.6 
	188.3,1419.6 188.3,1410.6 179.3,1410.6 179.3,1389.6 152.2,1389.6 152.2,1380.6 143.2,1380.6 143.2,1389.6 116.1,1389.6 
	116.1,1410.6 125.1,1410.6 125.1,1419.6 116.1,1419.6 "/>
<circle class="st1" cx="23.8" cy="727.8" r="63.1"/>
</svg>
